<svg height="512pt" viewBox="0 -51 512 512" width="512pt" xmlns="http://www.w3.org/2000/svg"><path d="m512 185.785156c0-.066406 0-.132812 0-.199218-.058594-6.191407-2.730469-12.097657-7.351562-16.226563l-50.515626-45.101563c-6.183593-5.519531-15.660156-4.980468-21.183593 1.199219-5.515625 6.179688-4.976563 15.660157 1.199219 21.179688l27.050781 24.148437h-257.773438c-7.265625-49.410156-49.863281-87.457031-101.164062-87.457031-56.386719 0-102.261719 45.960937-102.261719 102.457031s45.875 102.457032 102.261719 102.457032c51.300781 0 93.898437-38.046876 101.164062-87.457032h257.773438l-27.046875 24.152344c-6.179688 5.515625-6.71875 15-1.199219 21.175781 2.960937 3.320313 7.066406 5.011719 11.191406 5.011719 3.558594 0 7.125-1.257812 9.988281-3.8125l50.515626-45.101562c4.621093-4.128907 7.292968-10.03125 7.351562-16.226563 0-.0625 0-.128906 0-.191406 0-.003907 0-.003907 0-.007813zm-409.738281 72.457032c-39.847657 0-72.261719-32.503907-72.261719-72.457032s32.414062-72.457031 72.261719-72.457031c34.714843 0 63.792969 24.679687 70.703125 57.457031h-48.152344c-8.285156 0-15 6.714844-15 15s6.714844 15 15 15h48.152344c-6.910156 32.78125-35.988282 57.457032-70.703125 57.457032zm0 0"/><path d="m300.9375 64.992188c0 8.285156 6.714844 15 15 15h163.183594c8.285156 0 15-6.714844 15-15 0-8.285157-6.714844-15-15-15h-163.183594c-8.285156 0-15 6.714843-15 15zm0 0"/><path d="m207.363281 30h126.515625c8.28125 0 15-6.714844 15-15s-6.71875-15-15-15h-126.515625c-8.28125 0-15 6.714844-15 15s6.71875 15 15 15zm0 0"/><path d="m383.601562 30h23.398438c8.285156 0 15-6.714844 15-15s-6.714844-15-15-15h-23.398438c-8.285156 0-15 6.714844-15 15s6.714844 15 15 15zm0 0"/><path d="m214.316406 78.984375c-8.285156 0-15 6.71875-15 15 0 8.285156 6.714844 15 15 15h23.398438c8.285156 0 15-6.714844 15-15 0-8.28125-6.714844-15-15-15zm0 0"/><path d="m257.75 258.960938c8.285156 0 15-6.714844 15-15 0-8.285157-6.714844-15-15-15h-23.398438c-8.285156 0-15 6.714843-15 15 0 8.285156 6.714844 15 15 15zm0 0"/><path d="m257.75 351.003906h-162.855469c-8.285156 0-15 6.71875-15 15 0 8.285156 6.714844 15 15 15h162.855469c8.285156 0 15-6.714844 15-15 0-8.28125-6.714844-15-15-15zm0 0"/><path d="m366.648438 301.011719h-126.511719c-8.285157 0-15 6.71875-15 15 0 8.285156 6.714843 15 15 15h126.511719c8.285156 0 15-6.714844 15-15 0-8.28125-6.714844-15-15-15zm0 0"/><path d="m190.414062 331.011719c8.285157 0 15-6.714844 15-15 0-8.28125-6.714843-15-15-15h-23.398437c-8.285156 0-15 6.71875-15 15 0 8.285156 6.714844 15 15 15zm0 0"/><path d="m359.699219 380h-23.398438c-8.285156 0-15 6.714844-15 15s6.714844 15 15 15h23.398438c8.28125 0 15-6.714844 15-15s-6.71875-15-15-15zm0 0"/></svg>