<?xml version="1.0" encoding="iso-8859-1"?>
<!-- Generator: Adobe Illustrator 19.0.0, SVG Export Plug-In . SVG Version: 6.00 Build 0)  -->
<svg version="1.1" id="Capa_1" xmlns="http://www.w3.org/2000/svg" xmlns:xlink="http://www.w3.org/1999/xlink" x="0px" y="0px"
	 viewBox="0 0 512 512" style="enable-background:new 0 0 512 512;" xml:space="preserve">
<g>
	<g>
		<path d="M393.846,0H118.154C93.723,0,73.846,19.876,73.846,44.308v423.385c0,24.431,19.876,44.308,44.308,44.308h275.692
			c24.431,0,44.308-19.876,44.308-44.308V44.308C438.154,19.876,418.277,0,393.846,0z M408.615,467.692
			c0,8.144-6.625,14.769-14.769,14.769H118.154c-8.144,0-14.769-6.625-14.769-14.769V44.308c0-8.144,6.625-14.769,14.769-14.769
			h275.692c8.144,0,14.769,6.625,14.769,14.769V467.692z"/>
	</g>
</g>
<g>
	<g>
		<path d="M364.308,59.077H147.692c-8.157,0-14.769,6.613-14.769,14.769v364.308c0,8.157,6.613,14.769,14.769,14.769h216.615
			c8.157,0,14.769-6.613,14.769-14.769V73.846C379.077,65.69,372.464,59.077,364.308,59.077z M349.538,423.385H162.462V270.769
			h187.077V423.385z M349.538,241.231H162.462V88.615h187.077V241.231z"/>
	</g>
</g>
<g>
	<g>
		<path d="M256,120.615c-24.431,0-44.308,19.876-44.308,44.308s19.876,44.308,44.308,44.308s44.308-19.876,44.308-44.308
			S280.431,120.615,256,120.615z M256,179.692c-8.144,0-14.769-6.625-14.769-14.769c0-8.144,6.625-14.769,14.769-14.769
			s14.769,6.625,14.769,14.769C270.769,173.067,264.144,179.692,256,179.692z"/>
	</g>
</g>
<g>
	<g>
		<path d="M256,302.769c-8.157,0-14.769,6.613-14.769,14.769v59.077c0,8.157,6.613,14.769,14.769,14.769s14.769-6.613,14.769-14.769
			v-59.077C270.769,309.382,264.157,302.769,256,302.769z"/>
	</g>
</g>
<g>
</g>
<g>
</g>
<g>
</g>
<g>
</g>
<g>
</g>
<g>
</g>
<g>
</g>
<g>
</g>
<g>
</g>
<g>
</g>
<g>
</g>
<g>
</g>
<g>
</g>
<g>
</g>
<g>
</g>
</svg>
