<?xml version="1.0" encoding="iso-8859-1"?>
<!-- Generator: Adobe Illustrator 19.0.0, SVG Export Plug-In . SVG Version: 6.00 Build 0)  -->
<svg version="1.1" id="Capa_1" xmlns="http://www.w3.org/2000/svg" xmlns:xlink="http://www.w3.org/1999/xlink" x="0px" y="0px"
	 viewBox="0 0 512 512" style="enable-background:new 0 0 512 512;" xml:space="preserve">
<g>
	<g>
		<path d="M497,181c-8.284,0-15,6.716-15,15v10h-41v-90c0-8.284-6.716-15-15-15h-62c-8.284,0-15,6.716-15,15v14H92v-14
			c0-8.284-6.716-15-15-15H15c-8.284,0-15,6.716-15,15v280c0,8.284,6.716,15,15,15h62c8.284,0,15-6.716,15-15v-14h257v14
			c0,8.284,6.716,15,15,15h62c8.284,0,15-6.716,15-15v-90h41v10c0,8.284,6.716,15,15,15s15-6.716,15-15c0-28.97,0-98.682,0-120
			C512,187.716,505.284,181,497,181z M62,381H30V131h32C62,156.774,62,348.021,62,381z M349,352H92v-20h257V352z M349,302H92v-92
			h257V302z M349,180H92v-20h257V180z M411,381h-32c0-42.719,0-224.727,0-250h32C411,159.403,411,361.359,411,381z M482,276h-41v-40
			h41V276z"/>
	</g>
</g>
<g>
</g>
<g>
</g>
<g>
</g>
<g>
</g>
<g>
</g>
<g>
</g>
<g>
</g>
<g>
</g>
<g>
</g>
<g>
</g>
<g>
</g>
<g>
</g>
<g>
</g>
<g>
</g>
<g>
</g>
</svg>
