<svg height="512pt" viewBox="0 0 512 512" width="512pt" xmlns="http://www.w3.org/2000/svg"><path d="m346.960938 0c-8.285157 0-15.003907 6.71875-15.003907 15.003906s6.71875 15.003906 15.003907 15.003906c74.457031 0 135.03125 60.574219 135.03125 135.03125 0 8.285157 6.71875 15.003907 15.003906 15.003907s15.003906-6.71875 15.003906-15.003907c0-91.003906-74.035156-165.039062-165.039062-165.039062zm0 0"/><path d="m346.960938 60.015625c-8.285157 0-15.003907 6.714844-15.003907 15.003906 0 8.285157 6.71875 15 15.003907 15 41.363281 0 75.019531 33.65625 75.019531 75.019531 0 8.285157 6.714843 15.003907 15 15.003907 8.289062 0 15.003906-6.71875 15.003906-15.003907 0-57.910156-47.113281-105.023437-105.023437-105.023437zm0 0"/><path d="m346.960938 120.027344c-8.285157 0-15.003907 6.71875-15.003907 15.003906s6.71875 15.003906 15.003907 15.003906c8.273437 0 15.003906 6.730469 15.003906 15.003906 0 8.285157 6.71875 15.003907 15.003906 15.003907s15.003906-6.71875 15.003906-15.003907c0-24.820312-20.191406-45.011718-45.011718-45.011718zm0 0"/><path d="m324.90625 185.554688c-3.289062-2.851563-7.652344-4.132813-11.953125-3.519532l-210.050781 30.007813c-7.390625 1.054687-12.882813 7.386719-12.882813 14.855469v200.902343c-8.777343-3.730469-18.996093-5.859375-30.003906-5.859375-33.65625 0-60.015625 19.773438-60.015625 45.011719s26.359375 45.011719 60.015625 45.011719c33.652344 0 60.011719-19.773438 60.011719-45.011719v-146.394531l180.042968-27.703125v104.9375c-8.78125-3.730469-18.996093-5.859375-30.007812-5.859375-33.652344 0-60.011719 19.773437-60.011719 45.011718 0 25.238282 26.359375 45.011719 60.011719 45.011719s60.015625-19.773437 60.015625-45.011719v-240.058593c0-4.347657-1.886719-8.480469-5.171875-11.332031zm-264.890625 296.402343c-18.320313 0-30.007813-8.886719-30.007813-15.003906s11.6875-15.003906 30.007813-15.003906c18.316406 0 30.003906 8.886719 30.003906 15.003906s-11.6875 15.003906-30.003906 15.003906zm60.011719-191.761719v-50.285156l180.042968-25.722656v48.308594zm150.035156 161.753907c-18.316406 0-30.003906-8.886719-30.003906-15.003907 0-6.117187 11.6875-15.003906 30.003906-15.003906 18.320312 0 30.007812 8.886719 30.007812 15.003906 0 6.117188-11.6875 15.003907-30.007812 15.003907zm0 0"/></svg>