<svg id="Capa_1" enable-background="new 0 0 512.006 512.006" height="512" viewBox="0 0 512.006 512.006" width="512" xmlns="http://www.w3.org/2000/svg"><path d="m143.971 431.294c-3.839 0-7.678-1.465-10.606-4.394-51.508-51.508-51.508-135.316 0-186.824 5.857-5.857 15.355-5.857 21.213 0s5.858 15.355 0 21.213c-39.811 39.811-39.811 104.588 0 144.398 5.858 5.857 5.858 15.355 0 21.213-2.929 2.929-6.768 4.394-10.607 4.394z"/><path d="m200.242 385.023c-3.839 0-7.678-1.465-10.606-4.394-25.994-25.994-25.994-68.289 0-94.283 5.857-5.857 15.355-5.857 21.213 0s5.858 15.355 0 21.213c-14.297 14.297-14.297 37.561 0 51.857 5.858 5.857 5.858 15.355 0 21.213-2.93 2.93-6.768 4.394-10.607 4.394z"/><path d="m87.549 476.305c-3.839 0-7.678-1.465-10.606-4.394-76.326-76.326-76.326-200.519 0-276.846 5.858-5.857 15.356-5.857 21.213 0 5.858 5.857 5.858 15.355 0 21.213-64.629 64.63-64.629 169.791 0 234.42 5.858 5.857 5.858 15.355 0 21.213-2.929 2.929-6.768 4.394-10.607 4.394z"/><path d="m477.313 512.006c-5.715 0-11.174-3.283-13.679-8.83l-20.224-44.781c-3.138-6.948-10.117-11.361-17.71-11.219-26.632.465-59.341.957-76.033.627-17.957-.355-28.423-7.979-34.041-14.312-7.784-8.773-11.355-20.76-10.056-33.75.752-7.528-1.282-10.093-5.333-15.2-3.064-3.863-6.878-8.67-8.718-15.516-2.792-10.393 1.287-21.721 10.391-28.859.407-.318.831-.617 1.269-.893l30.14-18.959-45.046-17.09c-.384-.146-.762-.308-1.133-.484-10.76-5.128-16.716-16.888-14.485-28.596l5.827-30.589c.594-3.118-.092-6.26-1.933-8.847-1.84-2.588-4.583-4.267-7.725-4.729l-29.654-4.359c-8.207-1.208-15.242-6.396-18.82-13.877-3.578-7.48-3.201-16.213 1.008-23.357l56.521-95.938c8.598-14.593 11.99-31.86 9.552-48.621l-3.879-26.666c-1.192-8.198 4.486-15.811 12.685-17.003s15.811 4.487 17.003 12.685l3.879 26.666c3.418 23.5-1.338 47.709-13.392 68.168l-52.652 89.371 22.114 3.251c11.308 1.664 21.183 7.709 27.807 17.021s9.094 20.623 6.956 31.849l-5.229 27.451 50.626 19.207c8.926 3.386 15.061 11.391 16.008 20.892.948 9.501-3.483 18.561-11.565 23.645l-36.186 22.762c.631.876 1.428 1.881 2.134 2.771 5.104 6.433 13.645 17.199 11.682 36.829-.265 2.643-.272 7.567 2.646 10.856 2.974 3.353 8.272 4.148 12.192 4.227 16.193.319 48.543-.167 74.915-.629 19.611-.306 37.501 10.988 45.576 28.867l20.224 44.781c3.41 7.55.053 16.435-7.497 19.845-2.003.904-4.101 1.333-6.165 1.333zm-134.605-188.13h.01z"/></svg>